<svg width="19" height="21" viewBox="0 0 19 21" fill="none" xmlns="http://www.w3.org/2000/svg">
<path d="M4.31499 5.17599C4.06499 4.53799 4.07499 3.80899 4.18599 3.14199C4.95018 3.37096 5.66788 3.7332 6.30598 4.21199C6.58599 4.42599 6.95299 4.49499 7.29499 4.39199C8.17256 4.12943 9.08398 3.99735 9.99998 3.99999C10.961 3.99999 11.874 4.13999 12.703 4.39099C13.045 4.49499 13.412 4.42499 13.691 4.21099C14.3288 3.73231 15.0461 3.37007 15.81 3.14099C15.921 3.80799 15.93 4.53699 15.682 5.17399C15.532 5.55799 15.607 5.99999 15.89 6.31399C16.614 7.11699 17 8.03999 17 8.99999C17 11.114 15.03 13.187 11.866 13.818C11.074 13.976 10.765 14.973 11.371 15.544C11.76 15.91 12 16.426 12 17V20C12 20.2652 12.1053 20.5196 12.2929 20.7071C12.4804 20.8946 12.7348 21 13 21C13.2652 21 13.5196 20.8946 13.7071 20.7071C13.8946 20.5196 14 20.2652 14 20V17C14 16.43 13.88 15.888 13.666 15.397C16.683 14.35 19 11.993 19 8.99999C19 7.65299 18.516 6.41499 17.713 5.37799C17.923 4.55799 17.904 3.73199 17.824 3.09799C17.753 2.52999 17.654 1.78599 17.254 1.34199C16.659 0.68299 15.674 1.07099 14.974 1.30999C14.2231 1.56408 13.5087 1.9154 12.849 2.35499C11.918 2.1174 10.9608 1.99813 9.99998 1.99999C9.00598 1.99999 8.04699 2.12499 7.14899 2.35599C6.48931 1.91639 5.7749 1.56507 5.02399 1.31099C4.32399 1.07099 3.33799 0.68299 2.74299 1.34199C2.33499 1.79399 2.24999 2.47899 2.17699 3.06099L2.17199 3.09899C2.09199 3.73399 2.07399 4.56099 2.28399 5.38199C1.48399 6.41799 0.999985 7.65399 0.999985 8.99999C0.999985 11.992 3.31698 14.35 6.33398 15.397C6.11561 15.8963 6.00194 16.435 5.99999 16.98L5.83198 17.014C5.11498 17.113 4.65598 17.024 4.34399 16.892C3.58399 16.57 3.19199 15.759 2.71399 15.139C2.41599 14.754 1.98199 14.273 1.31599 14.051C1.19136 14.0095 1.05978 13.9929 0.928764 14.0023C0.797746 14.0117 0.669852 14.0467 0.552386 14.1055C0.315153 14.2242 0.134794 14.4323 0.0509852 14.684C-0.0328232 14.9357 -0.0132154 15.2104 0.105495 15.4476C0.224206 15.6848 0.432295 15.8652 0.683985 15.949C1.24199 16.135 1.62799 17.091 1.98199 17.515C2.35499 17.963 2.85099 18.431 3.56199 18.733C4.24399 19.023 5.04499 19.126 5.99999 19.009V20C5.99999 20.2652 6.10534 20.5196 6.29288 20.7071C6.48041 20.8946 6.73477 21 6.99999 21C7.2652 21 7.51956 20.8946 7.70709 20.7071C7.89463 20.5196 7.99998 20.2652 7.99998 20V17C7.99998 16.426 8.23998 15.91 8.62898 15.544C9.23598 14.972 8.92598 13.976 8.13398 13.818C4.96898 13.187 2.99999 11.114 2.99999 8.99999C2.99999 8.04199 3.38498 7.11899 4.10799 6.31599C4.39099 6.00199 4.46499 5.55999 4.31499 5.17599Z" fill="black"/>
</svg>
