<svg width="46" height="54" viewBox="0 0 46 54" fill="none" xmlns="http://www.w3.org/2000/svg">
<path fill-rule="evenodd" clip-rule="evenodd" d="M10.7153 41.8871V43.5106H15.5588V53.1029H16.8167V43.5104C17.3264 43.5089 17.8296 43.4947 18.3262 43.4678V53.1029H19.5841V43.3713C20.0945 43.3204 20.5977 43.2555 21.0936 43.1766V53.1029H22.3515V42.9431C23.5307 42.6923 24.6668 42.3583 25.76 41.9412C28.502 40.8588 30.8831 39.3435 32.9035 37.3953C34.9099 35.4605 36.4716 33.1878 37.5885 30.577C37.6546 30.6798 37.719 30.7843 37.7817 30.8905C38.6762 32.405 39.1235 34.1719 39.1235 36.1912C39.1235 38.1824 38.6762 39.9493 37.7817 41.4919C36.8872 43.0064 35.6433 44.1843 34.05 45.0257C32.4566 45.8671 30.5977 46.2878 28.4733 46.2878H23.861V47.5498H28.5152C30.8633 47.5498 32.9318 47.073 34.7208 46.1195C36.5098 45.1659 37.9075 43.8337 38.9138 42.1229C39.9202 40.4121 40.4233 38.4349 40.4233 36.1912C40.4233 33.9475 39.9202 31.9843 38.9138 30.3015C38.6749 29.8953 38.414 29.5105 38.1309 29.147C38.3246 28.5728 38.4941 27.9876 38.6392 27.3914C39.2327 28.0283 39.7575 28.7319 40.2137 29.5022C41.3597 31.4374 41.9328 33.667 41.9328 36.1912C41.9328 38.6873 41.3597 40.9169 40.2137 42.8802C39.0676 44.8153 37.4882 46.3298 35.4756 47.4236C33.4629 48.5174 31.1288 49.0643 28.4733 49.0643H23.861V50.3264H28.5152C31.3944 50.3264 33.9381 49.7234 36.1465 48.5174C38.3548 47.3114 40.0879 45.6427 41.3458 43.5112C42.6037 41.3797 43.2326 38.9397 43.2326 36.1912C43.2326 33.4427 42.6037 31.0167 41.3458 28.9132C40.6791 27.7835 39.8789 26.7838 38.9452 25.9141C39.0463 25.3262 39.1251 24.7282 39.1817 24.1202C39.5094 24.3856 39.8254 24.6651 40.1298 24.9587C41.5834 26.361 42.7015 28.0158 43.4842 29.9229C44.2948 31.83 44.7002 33.9194 44.7002 36.1912C44.7002 38.4629 44.2948 40.5523 43.4842 42.4595C42.7015 44.3666 41.5834 46.0213 40.1298 47.4236C38.6762 48.8259 36.9571 49.9197 34.9724 50.705C33.0157 51.4622 30.8493 51.8409 28.4733 51.8409H23.861V53.1029H28.5152C31.0589 53.1029 33.393 52.6963 35.5175 51.8829C37.642 51.0416 39.4869 49.8636 41.0523 48.3491C42.6176 46.8346 43.8336 45.0537 44.7002 43.0064C45.5667 40.931 46 38.6592 46 36.1912C46 33.7231 45.5667 31.4654 44.7002 29.4181C43.8336 27.3707 42.6176 25.5898 41.0523 24.0753C40.4957 23.5368 39.9037 23.0408 39.2764 22.5874C39.2851 22.312 39.2894 22.0346 39.2894 21.7553C39.2894 18.5804 38.7302 15.6761 37.6118 13.0424C36.4933 10.4086 34.9239 8.11765 32.9035 6.16941C30.8831 4.22118 28.502 2.70588 25.76 1.62353C23.018 0.541176 20.0055 0 16.7224 0H10.7153V1.62353H16.6682C19.7349 1.62353 22.531 2.12863 25.0565 3.13882C27.618 4.11294 29.8369 5.50196 31.7129 7.30588C33.589 9.1098 35.0322 11.2384 36.0424 13.6918C37.0616 16.0817 37.5844 18.6942 37.6107 21.5293C36.9981 21.1891 36.3574 20.8827 35.6885 20.6102C35.5304 17.542 34.7283 14.8029 33.2824 12.3929C31.6588 9.65098 29.422 7.50431 26.5718 5.95294C23.7216 4.36549 20.4384 3.57176 16.7224 3.57176H10.7153V5.1953H16.6682C20.0957 5.1953 23.1082 5.89882 25.7059 7.30588C28.3035 8.71294 30.342 10.6612 31.8212 13.1506C33.03 15.1849 33.7449 17.4722 33.9658 20.0125C33.3144 19.8247 32.645 19.6729 31.9576 19.5573C31.7062 17.5682 31.1015 15.7754 30.1435 14.1788C28.8447 11.978 27.0408 10.2643 24.7318 9.03765C22.4227 7.7749 19.7529 7.14353 16.7224 7.14353H10.7153V8.76706H16.6682C19.4102 8.76706 21.8094 9.30824 23.8659 10.3906C25.9224 11.4729 27.5278 12.9882 28.6824 14.9365C29.4649 16.2571 29.9823 17.7269 30.2344 19.346C29.6724 19.3016 29.0993 19.2794 28.5152 19.2794H23.861V20.5415H28.4733C29.1234 20.5415 29.7579 20.5709 30.3766 20.6297C30.4016 20.9979 30.4141 21.3731 30.4141 21.7553C30.4141 21.8876 30.4126 22.0191 30.4095 22.1499C29.7951 22.0873 29.1636 22.056 28.5152 22.056H23.861V23.318H28.4733C29.1105 23.318 29.7292 23.3495 30.3294 23.4125C30.2757 23.9246 30.1964 24.4239 30.0916 24.9105C29.5809 24.8585 29.0555 24.8325 28.5152 24.8325H23.861V26.0946H28.4733C28.9138 26.0946 29.343 26.1127 29.7607 26.1489C29.4872 27.0002 29.1277 27.8087 28.6824 28.5741C27.5278 30.5224 25.9224 32.0376 23.8659 33.12C23.3802 33.3756 22.8754 33.6011 22.3515 33.7963V19.2794H21.0936V34.1973C20.6053 34.3281 20.1021 34.4354 19.5841 34.5192V19.2794H18.3262V34.674C17.8353 34.7163 17.3321 34.7393 16.8167 34.743V19.2794H15.5588V34.7435H10.7153V36.3671H15.5588V38.3153H10.7153V39.9388H15.5588V41.8871H10.7153ZM16.8167 41.8867C17.3274 41.8841 17.8306 41.8678 18.3262 41.838V39.889C17.8313 39.9203 17.3281 39.9368 16.8167 39.9387V41.8867ZM16.8167 38.3149C17.3292 38.3118 17.8324 38.2929 18.3262 38.2582V36.3073C17.8335 36.3448 17.3303 36.3647 16.8167 36.3669V38.3149ZM19.5841 36.1697V38.1328C20.0981 38.066 20.6012 37.9809 21.0936 37.8774V35.8847C20.6027 36.0006 20.0995 36.0956 19.5841 36.1697ZM22.3515 35.5335V37.5664C23.5374 37.2275 24.6556 36.7736 25.7059 36.2047C28.3035 34.7976 30.342 32.8494 31.8212 30.36C32.4423 29.2995 32.9331 28.1786 33.2934 26.9972C32.7092 26.7491 32.0927 26.5521 31.444 26.4063C31.1269 27.461 30.6934 28.4541 30.1435 29.3859C28.8447 31.5867 27.0408 33.3004 24.7318 34.5271C23.9769 34.9281 23.1835 35.2636 22.3515 35.5335ZM31.7538 25.1833C32.4013 25.3329 33.0217 25.5302 33.6148 25.7752C33.7269 25.2714 33.8168 24.7573 33.8846 24.2329C33.2781 24.0052 32.6467 23.8201 31.9903 23.6774C31.9345 24.1915 31.8557 24.6935 31.7538 25.1833ZM32.0806 22.4059C32.7443 22.5435 33.3859 22.7218 34.0055 22.9406C34.0285 22.5508 34.04 22.1557 34.04 21.7553C34.04 21.6293 34.0389 21.5039 34.0367 21.379C33.4021 21.1713 32.7468 21.0021 32.0709 20.8717C32.0848 21.1624 32.0918 21.4569 32.0918 21.7553C32.0918 21.9741 32.088 22.191 32.0806 22.4059ZM35.7161 22.0237C35.7097 22.571 35.6836 23.1086 35.6378 23.6367C35.8093 23.7232 35.9788 23.8133 36.1465 23.907C36.5921 24.1504 37.0184 24.4126 37.4253 24.6936C37.4982 24.1359 37.5497 23.5686 37.5798 22.9917C36.9893 22.6317 36.368 22.3091 35.7161 22.0237ZM37.1968 26.0774C36.6643 25.6661 36.0916 25.2938 35.4788 24.9605C35.395 25.5018 35.2893 26.0324 35.1615 26.5522C35.7504 26.8996 36.2936 27.2912 36.7911 27.7271C36.9492 27.1874 37.0844 26.6375 37.1968 26.0774ZM36.3533 29.0418C35.889 28.5778 35.3734 28.1633 34.8064 27.7982C34.4208 28.9826 33.9128 30.1071 33.2824 31.1718C31.6588 33.9137 29.422 36.0604 26.5718 37.6118C25.2571 38.3273 23.8504 38.8779 22.3515 39.2634V41.2589C23.2852 41.039 24.1869 40.7613 25.0565 40.4259C27.618 39.4157 29.8369 38.0086 31.7129 36.2047C33.589 34.4008 35.0322 32.2722 36.0424 29.8188C36.1517 29.5624 36.2554 29.3034 36.3533 29.0418ZM21.0936 41.5168V39.5441C20.5998 39.638 20.0966 39.7152 19.5841 39.7756V41.7315C20.0957 41.6752 20.5989 41.6036 21.0936 41.5168ZM7.14353 0V43.5106H8.76706V0H7.14353ZM0 0V43.5106H1.62353V0H0ZM3.57177 0V43.5106H5.19529V0H3.57177Z" fill="black"/>
</svg>
