<svg width="20" height="20" viewBox="0 0 20 20" fill="none" xmlns="http://www.w3.org/2000/svg">
<path fill-rule="evenodd" clip-rule="evenodd" d="M10 0C10.2652 0 10.5196 0.105357 10.7071 0.292893C10.8946 0.48043 11 0.734784 11 1V2C11 2.26522 10.8946 2.51957 10.7071 2.70711C10.5196 2.89464 10.2652 3 10 3C9.73478 3 9.48043 2.89464 9.29289 2.70711C9.10536 2.51957 9 2.26522 9 2V1C9 0.734784 9.10536 0.48043 9.29289 0.292893C9.48043 0.105357 9.73478 0 10 0ZM0 10C0 9.73478 0.105357 9.48043 0.292893 9.29289C0.48043 9.10536 0.734784 9 1 9H2C2.26522 9 2.51957 9.10536 2.70711 9.29289C2.89464 9.48043 3 9.73478 3 10C3 10.2652 2.89464 10.5196 2.70711 10.7071C2.51957 10.8946 2.26522 11 2 11H1C0.734784 11 0.48043 10.8946 0.292893 10.7071C0.105357 10.5196 0 10.2652 0 10ZM17 10C17 9.73478 17.1054 9.48043 17.2929 9.29289C17.4804 9.10536 17.7348 9 18 9H19C19.2652 9 19.5196 9.10536 19.7071 9.29289C19.8946 9.48043 20 9.73478 20 10C20 10.2652 19.8946 10.5196 19.7071 10.7071C19.5196 10.8946 19.2652 11 19 11H18C17.7348 11 17.4804 10.8946 17.2929 10.7071C17.1054 10.5196 17 10.2652 17 10ZM11 18C11 17.7348 10.8946 17.4804 10.7071 17.2929C10.5196 17.1054 10.2652 17 10 17C9.73478 17 9.48043 17.1054 9.29289 17.2929C9.10536 17.4804 9 17.7348 9 18V19C9 19.2652 9.10536 19.5196 9.29289 19.7071C9.48043 19.8946 9.73478 20 10 20C10.2652 20 10.5196 19.8946 10.7071 19.7071C10.8946 19.5196 11 19.2652 11 19V18ZM16.364 14.95C16.2718 14.8545 16.1614 14.7783 16.0394 14.7259C15.9174 14.6735 15.7862 14.6459 15.6534 14.6447C15.5206 14.6436 15.3889 14.6689 15.266 14.7192C15.1432 14.7695 15.0315 14.8437 14.9376 14.9376C14.8437 15.0315 14.7695 15.1432 14.7192 15.266C14.6689 15.3889 14.6436 15.5206 14.6447 15.6534C14.6459 15.7862 14.6735 15.9174 14.7259 16.0394C14.7783 16.1614 14.8545 16.2718 14.95 16.364L15.657 17.071C15.8456 17.2532 16.0982 17.354 16.3604 17.3517C16.6226 17.3494 16.8734 17.2442 17.0588 17.0588C17.2442 16.8734 17.3494 16.6226 17.3517 16.3604C17.354 16.0982 17.2532 15.8456 17.071 15.657L16.364 14.95ZM2.929 2.929C3.11653 2.74153 3.37084 2.63621 3.636 2.63621C3.90116 2.63621 4.15547 2.74153 4.343 2.929L5.05 3.636C5.23216 3.8246 5.33295 4.0772 5.33067 4.3394C5.3284 4.6016 5.22323 4.85241 5.03782 5.03782C4.85241 5.22323 4.6016 5.3284 4.3394 5.33067C4.0772 5.33295 3.8246 5.23216 3.636 5.05L2.929 4.343C2.74153 4.15547 2.63621 3.90116 2.63621 3.636C2.63621 3.37084 2.74153 3.11653 2.929 2.929ZM5.05 16.364C5.14551 16.2718 5.22169 16.1614 5.2741 16.0394C5.32651 15.9174 5.3541 15.7862 5.35525 15.6534C5.3564 15.5206 5.3311 15.3889 5.28082 15.266C5.23054 15.1432 5.15629 15.0315 5.0624 14.9376C4.9685 14.8437 4.85685 14.7695 4.73395 14.7192C4.61106 14.6689 4.47938 14.6436 4.3466 14.6447C4.21382 14.6459 4.0826 14.6735 3.9606 14.7259C3.83859 14.7783 3.72825 14.8545 3.636 14.95L2.929 15.657C2.83349 15.7492 2.75731 15.8596 2.7049 15.9816C2.65249 16.1036 2.6249 16.2348 2.62375 16.3676C2.6226 16.5004 2.6479 16.6321 2.69818 16.755C2.74846 16.8778 2.82271 16.9895 2.9166 17.0834C3.0105 17.1773 3.12215 17.2515 3.24505 17.3018C3.36794 17.3521 3.49962 17.3774 3.6324 17.3763C3.76518 17.3751 3.8964 17.3475 4.0184 17.2951C4.14041 17.2427 4.25075 17.1665 4.343 17.071L5.05 16.364ZM17.071 2.929C17.2585 3.11653 17.3638 3.37084 17.3638 3.636C17.3638 3.90116 17.2585 4.15547 17.071 4.343L16.364 5.05C16.2718 5.14551 16.1614 5.22169 16.0394 5.2741C15.9174 5.32651 15.7862 5.3541 15.6534 5.35525C15.5206 5.3564 15.3889 5.3311 15.266 5.28082C15.1432 5.23054 15.0315 5.15629 14.9376 5.0624C14.8437 4.9685 14.7695 4.85685 14.7192 4.73395C14.6689 4.61106 14.6436 4.47938 14.6447 4.3466C14.6459 4.21382 14.6735 4.0826 14.7259 3.9606C14.7783 3.83859 14.8545 3.72825 14.95 3.636L15.657 2.929C15.8445 2.74153 16.0988 2.63621 16.364 2.63621C16.6292 2.63621 16.8835 2.74153 17.071 2.929ZM5 10C5 8.67392 5.52678 7.40215 6.46447 6.46447C7.40215 5.52678 8.67392 5 10 5C11.3261 5 12.5979 5.52678 13.5355 6.46447C14.4732 7.40215 15 8.67392 15 10C15 11.3261 14.4732 12.5979 13.5355 13.5355C12.5979 14.4732 11.3261 15 10 15C8.67392 15 7.40215 14.4732 6.46447 13.5355C5.52678 12.5979 5 11.3261 5 10Z" fill="black"/>
</svg>
