<svg width="126" height="32" viewBox="0 0 126 32" fill="none" xmlns="http://www.w3.org/2000/svg">
<path fill-rule="evenodd" clip-rule="evenodd" d="M6.93601 25.04V26H10.488C12.4293 26 14.2107 25.6907 15.832 25.072C17.4533 24.432 18.8613 23.536 20.056 22.384C21.2507 21.232 22.1787 19.8773 22.84 18.32C23.5013 16.7413 23.832 15.0133 23.832 13.136C23.832 11.2587 23.5013 9.54134 22.84 7.984C22.1787 6.42667 21.2507 5.072 20.056 3.92C18.8613 2.768 17.4533 1.872 15.832 1.232C14.2107 0.592003 12.4293 0.272003 10.488 0.272003H6.93601V1.232H10.456C12.2693 1.232 13.9227 1.53067 15.416 2.128C16.9307 2.704 18.2427 3.52534 19.352 4.592C20.4613 5.65867 21.3147 6.91734 21.912 8.368C22.5307 9.81867 22.84 11.408 22.84 13.136C22.84 14.864 22.5307 16.4533 21.912 17.904C21.3147 19.3547 20.4613 20.6133 19.352 21.68C18.2427 22.7467 16.9307 23.5787 15.416 24.176C13.9227 24.752 12.2693 25.04 10.456 25.04H6.93601ZM4.82401 0.272003V26H5.78401V0.272003H4.82401ZM0.600006 0.272003V26H1.56001V0.272003H0.600006ZM2.71201 0.272003V26H3.67201V0.272003H2.71201ZM6.93601 22.928V23.888H10.488C12.6853 23.888 14.6267 23.4293 16.312 22.512C17.9973 21.5947 19.32 20.3253 20.28 18.704C21.24 17.0827 21.72 15.2267 21.72 13.136C21.72 11.0453 21.24 9.2 20.28 7.6C19.32 5.97867 17.9973 4.70934 16.312 3.792C14.6267 2.85334 12.6853 2.384 10.488 2.384H6.93601V3.344H10.456C12.4827 3.344 14.264 3.76 15.8 4.592C17.336 5.424 18.5413 6.576 19.416 8.048C20.2907 9.52 20.728 11.216 20.728 13.136C20.728 15.0347 20.2907 16.7307 19.416 18.224C18.5413 19.696 17.336 20.848 15.8 21.68C14.264 22.512 12.4827 22.928 10.456 22.928H6.93601ZM6.93601 20.816V21.776H10.488C12.28 21.776 13.8587 21.4133 15.224 20.688C16.5893 19.9627 17.656 18.9493 18.424 17.648C19.192 16.3467 19.576 14.8427 19.576 13.136C19.576 11.4293 19.192 9.936 18.424 8.656C17.656 7.35467 16.5893 6.34134 15.224 5.616C13.8587 4.86934 12.28 4.496 10.488 4.496H6.93601V5.456H10.456C12.0773 5.456 13.496 5.776 14.712 6.416C15.928 7.056 16.8773 7.952 17.56 9.104C18.2427 10.256 18.584 11.6 18.584 13.136C18.584 14.6507 18.2427 15.9947 17.56 17.168C16.8773 18.32 15.928 19.216 14.712 19.856C13.496 20.496 12.0773 20.816 10.456 20.816H6.93601ZM28.9412 9.45599C28.2159 9.45599 27.5866 9.21066 27.0532 8.71999C26.5412 8.22932 26.2852 7.64266 26.2852 6.95999C26.2852 6.27732 26.5412 5.69066 27.0532 5.19999C27.5866 4.70932 28.2159 4.46399 28.9412 4.46399C29.6666 4.46399 30.2852 4.70932 30.7972 5.19999C31.3092 5.69066 31.5652 6.27732 31.5652 6.95999C31.5652 7.64266 31.3092 8.22932 30.7972 8.71999C30.2852 9.21066 29.6666 9.45599 28.9412 9.45599ZM26.1892 11.28H31.6612V26H26.1892V11.28ZM49.0305 26V6.57599L43.5265 6.79999V9.48799C43.5265 9.59466 43.5585 10.16 43.6225 11.184C42.8118 11.0347 42.0225 10.96 41.2545 10.96C40.3798 10.96 39.3772 11.0667 38.2465 11.28C37.1372 11.4933 36.4012 11.76 36.0385 12.08C35.4625 12.592 34.9612 13.4347 34.5345 14.608C34.1078 15.7813 33.8945 17.2747 33.8945 19.088C33.8945 21.4773 34.3852 23.2693 35.3665 24.464C36.3692 25.6587 37.7025 26.256 39.3665 26.256C40.4118 26.256 41.3505 26.0107 42.1825 25.52C43.0145 25.0293 43.6438 24.368 44.0705 23.536L44.5185 26H49.0305ZM43.5585 21.68C42.9398 21.872 42.3425 21.968 41.7665 21.968C41.0625 21.968 40.5078 21.7547 40.1025 21.328C39.7185 20.9013 39.5265 20.0373 39.5265 18.736C39.5265 17.8613 39.5905 17.0293 39.7185 16.24C39.8678 15.4293 40.0598 14.9387 40.2945 14.768C40.4652 14.6613 40.8705 14.608 41.5105 14.608C42.2572 14.608 42.9398 14.6507 43.5585 14.736V21.68ZM51.7517 6.79999L57.2237 6.57599V26H51.7517V6.79999ZM91.093 6.57599V26H86.581L86.133 23.536C85.7063 24.368 85.077 25.0293 84.245 25.52C83.413 26.0107 82.4743 26.256 81.429 26.256C79.765 26.256 78.4317 25.6587 77.429 24.464C76.4477 23.2693 75.957 21.4773 75.957 19.088C75.957 17.2747 76.1703 15.7813 76.597 14.608C77.0237 13.4347 77.525 12.592 78.101 12.08C78.4637 11.76 79.1997 11.4933 80.309 11.28C81.4397 11.0667 82.4423 10.96 83.317 10.96C84.085 10.96 84.8743 11.0347 85.685 11.184C85.621 10.16 85.589 9.59466 85.589 9.48799V6.79999L91.093 6.57599ZM83.829 21.968C84.405 21.968 85.0023 21.872 85.621 21.68V14.736C85.0023 14.6507 84.3197 14.608 83.573 14.608C82.933 14.608 82.5277 14.6613 82.357 14.768C82.1223 14.9387 81.9303 15.4293 81.781 16.24C81.653 17.0293 81.589 17.8613 81.589 18.736C81.589 20.0373 81.781 20.9013 82.165 21.328C82.5703 21.7547 83.125 21.968 83.829 21.968ZM95.0623 24.624C96.3423 25.8187 98.2623 26.416 100.822 26.416C103.489 26.416 105.452 25.7653 106.71 24.464C107.969 23.1627 108.598 21.1253 108.598 18.352C108.598 15.7707 108.012 13.8933 106.838 12.72C105.665 11.5467 103.702 10.96 100.95 10.96C99.7983 10.96 98.5609 11.1413 97.2383 11.504C95.9369 11.8667 95.0409 12.3253 94.5503 12.88C94.1663 13.3067 93.8356 14.064 93.5583 15.152C93.3023 16.2187 93.1743 17.4667 93.1743 18.896C93.1743 21.4987 93.8036 23.408 95.0623 24.624ZM102.55 21.808C102.294 22.384 101.75 22.672 100.918 22.672C100.086 22.672 99.5209 22.3733 99.2223 21.776C98.9449 21.1787 98.8063 20.1547 98.8063 18.704C98.8063 17.8507 98.8596 17.0293 98.9663 16.24C99.0729 15.4507 99.2116 14.9813 99.3823 14.832C99.5103 14.6827 100.001 14.608 100.854 14.608C101.452 14.608 101.889 14.7467 102.166 15.024C102.465 15.28 102.668 15.696 102.774 16.272C102.881 16.8267 102.934 17.6267 102.934 18.672C102.934 20.1653 102.806 21.2107 102.55 21.808ZM112.031 24.624C113.311 25.8187 115.231 26.416 117.791 26.416C120.458 26.416 122.42 25.7653 123.679 24.464C124.938 23.1627 125.567 21.1253 125.567 18.352C125.567 15.7707 124.98 13.8933 123.807 12.72C122.634 11.5467 120.671 10.96 117.919 10.96C116.767 10.96 115.53 11.1413 114.207 11.504C112.906 11.8667 112.01 12.3253 111.519 12.88C111.135 13.3067 110.804 14.064 110.527 15.152C110.271 16.2187 110.143 17.4667 110.143 18.896C110.143 21.4987 110.772 23.408 112.031 24.624ZM119.519 21.808C119.263 22.384 118.719 22.672 117.887 22.672C117.055 22.672 116.49 22.3733 116.191 21.776C115.914 21.1787 115.775 20.1547 115.775 18.704C115.775 17.8507 115.828 17.0293 115.935 16.24C116.042 15.4507 116.18 14.9813 116.351 14.832C116.479 14.6827 116.97 14.608 117.823 14.608C118.42 14.608 118.858 14.7467 119.135 15.024C119.434 15.28 119.636 15.696 119.743 16.272C119.85 16.8267 119.903 17.6267 119.903 18.672C119.903 20.1653 119.775 21.2107 119.519 21.808ZM71.329 23.6L75.169 11.28H69.377L67.073 22.192H66.977L66.945 21.584L64.385 11.28H58.593L63.521 25.616L65.729 25.744C65.4517 26.4267 65.153 27.0773 64.833 27.696C64.513 27.7173 64.033 27.728 63.393 27.728C62.5397 27.728 61.665 27.7067 60.769 27.664C60.6623 28.176 60.577 28.7947 60.513 29.52C60.449 30.2667 60.4277 30.896 60.449 31.408C61.217 31.6427 62.241 31.76 63.521 31.76C64.3743 31.76 65.1637 31.696 65.889 31.568C66.6357 31.44 67.1797 31.2587 67.521 31.024C68.1183 30.5973 68.7157 29.84 69.313 28.752C69.9103 27.6853 70.5823 25.968 71.329 23.6Z" fill="black"/>
</svg>
