<svg width="13" height="22" viewBox="0 0 13 22" fill="none" xmlns="http://www.w3.org/2000/svg">
<path fill-rule="evenodd" clip-rule="evenodd" d="M7.29289 0.292893C7.68342 -0.0976311 8.31658 -0.0976311 8.70711 0.292893L12.4571 4.04289C12.8476 4.43342 12.8476 5.06658 12.4571 5.45711C12.0666 5.84763 11.4334 5.84763 11.0429 5.45711L9 3.41421V13.5C9 14.0523 8.55228 14.5 8 14.5C7.44772 14.5 7 14.0523 7 13.5V3.41421L4.95711 5.45711C4.56658 5.84763 3.93342 5.84763 3.54289 5.45711C3.15237 5.06658 3.15237 4.43342 3.54289 4.04289L7.29289 0.292893ZM4.75 7.5C5.30228 7.5 5.75 7.94772 5.75 8.5V18.5858L7.79289 16.5429C8.18342 16.1524 8.81658 16.1524 9.20711 16.5429C9.59763 16.9334 9.59763 17.5666 9.20711 17.9571L5.45711 21.7071C5.06658 22.0976 4.43342 22.0976 4.04289 21.7071L0.292893 17.9571C-0.0976311 17.5666 -0.0976311 16.9334 0.292893 16.5429C0.683417 16.1524 1.31658 16.1524 1.70711 16.5429L3.75 18.5858V8.5C3.75 7.94772 4.19772 7.5 4.75 7.5Z" fill="black"/>
</svg>
